<svg xmlns="http://www.w3.org/2000/svg" viewBox="0 0 400 400">
  <defs><radialGradient id="dbg"><stop stop-color="#1a110b"/><stop offset="1" stop-color="#0d0906"/></radialGradient><radialGradient id="dgl"><stop stop-color="#b8532a" stop-opacity=".5"/><stop offset=".6" stop-color="#b8532a" stop-opacity=".08"/><stop offset="1" stop-color="#b8532a" stop-opacity="0"/></radialGradient></defs>
  <rect width="400" height="400" rx="72" fill="url(#dbg)"/><circle cx="200" cy="200" r="190" fill="url(#dgl)"/>
  <g stroke="#7d6849" stroke-width="2" fill="none"><circle cx="200" cy="200" r="182"/><circle cx="200" cy="200" r="160" stroke-dasharray="4 10"/></g>
  <g stroke="#b9a281" stroke-width="2"><path d="M200 18v20m0 344v-20M18 200h20m344 0h-20M70 70l12 12m248-12-12 12M70 330l12-12m248 12-12-12"/></g>
  <g stroke="#f3e3cf" stroke-width="5.5" stroke-linecap="round" fill="none"><path d="M200 70q-5 110 0 150t0 110M200 110q-80 30-70 110 10 60 70 80M200 110q90 50 80 120-12 66-80 90M140 200q60-40 120 0M200 220l-25 60m25-60 28 56M178 92q22-14 44 0"/></g>
  <circle cx="200" cy="70" r="8" fill="#f0a45b"/><circle cx="200" cy="330" r="6.5" fill="#b8532a"/>
</svg>
