<svg xmlns="http://www.w3.org/2000/svg" viewBox="0 0 31 5" role="img" aria-label="mgrains"><g fill="#e8eadf"><circle cx="0.5" cy="0.5" r=".42"/><circle cx="1.5" cy="0.5" r=".42"/><circle cx="2.5" cy="0.5" r=".42"/><circle cx="3.5" cy="0.5" r=".42"/><circle cx="4.5" cy="0.5" r=".42"/><circle cx="0.5" cy="1.5" r=".42"/><circle cx="2.5" cy="1.5" r=".42"/><circle cx="4.5" cy="1.5" r=".42"/><circle cx="0.5" cy="2.5" r=".42"/><circle cx="2.5" cy="2.5" r=".42"/><circle cx="4.5" cy="2.5" r=".42"/><circle cx="0.5" cy="3.5" r=".42"/><circle cx="2.5" cy="3.5" r=".42"/><circle cx="4.5" cy="3.5" r=".42"/><circle cx="0.5" cy="4.5" r=".42"/><circle cx="2.5" cy="4.5" r=".42"/><circle cx="4.5" cy="4.5" r=".42"/><circle cx="6.5" cy="0.5" r=".42"/><circle cx="7.5" cy="0.5" r=".42"/><circle cx="8.5" cy="0.5" r=".42"/><circle cx="9.5" cy="0.5" r=".42"/><circle cx="6.5" cy="1.5" r=".42"/><circle cx="9.5" cy="1.5" r=".42"/><circle cx="6.5" cy="2.5" r=".42"/><circle cx="7.5" cy="2.5" r=".42"/><circle cx="8.5" cy="2.5" r=".42"/><circle cx="9.5" cy="2.5" r=".42"/><circle cx="9.5" cy="3.5" r=".42"/><circle cx="6.5" cy="4.5" r=".42"/><circle cx="7.5" cy="4.5" r=".42"/><circle cx="8.5" cy="4.5" r=".42"/><circle cx="11.5" cy="0.5" r=".42"/><circle cx="12.5" cy="0.5" r=".42"/><circle cx="13.5" cy="0.5" r=".42"/><circle cx="11.5" cy="1.5" r=".42"/><circle cx="13.5" cy="1.5" r=".42"/><circle cx="11.5" cy="2.5" r=".42"/><circle cx="11.5" cy="3.5" r=".42"/><circle cx="11.5" cy="4.5" r=".42"/><circle cx="15.5" cy="0.5" r=".42"/><circle cx="16.5" cy="0.5" r=".42"/><circle cx="17.5" cy="0.5" r=".42"/><circle cx="18.5" cy="1.5" r=".42"/><circle cx="15.5" cy="2.5" r=".42"/><circle cx="16.5" cy="2.5" r=".42"/><circle cx="17.5" cy="2.5" r=".42"/><circle cx="18.5" cy="2.5" r=".42"/><circle cx="15.5" cy="3.5" r=".42"/><circle cx="18.5" cy="3.5" r=".42"/><circle cx="15.5" cy="4.5" r=".42"/><circle cx="16.5" cy="4.5" r=".42"/><circle cx="17.5" cy="4.5" r=".42"/><circle cx="18.5" cy="4.5" r=".42"/><circle cx="20.5" cy="0.5" r=".42"/><circle cx="20.5" cy="2.5" r=".42"/><circle cx="20.5" cy="3.5" r=".42"/><circle cx="20.5" cy="4.5" r=".42"/><circle cx="22.5" cy="0.5" r=".42"/><circle cx="23.5" cy="0.5" r=".42"/><circle cx="24.5" cy="0.5" r=".42"/><circle cx="22.5" cy="1.5" r=".42"/><circle cx="25.5" cy="1.5" r=".42"/><circle cx="22.5" cy="2.5" r=".42"/><circle cx="25.5" cy="2.5" r=".42"/><circle cx="22.5" cy="3.5" r=".42"/><circle cx="25.5" cy="3.5" r=".42"/><circle cx="22.5" cy="4.5" r=".42"/><circle cx="25.5" cy="4.5" r=".42"/><circle cx="27.5" cy="0.5" r=".42"/><circle cx="28.5" cy="0.5" r=".42"/><circle cx="29.5" cy="0.5" r=".42"/><circle cx="30.5" cy="0.5" r=".42"/><circle cx="27.5" cy="1.5" r=".42"/><circle cx="27.5" cy="2.5" r=".42"/><circle cx="28.5" cy="2.5" r=".42"/><circle cx="29.5" cy="2.5" r=".42"/><circle cx="30.5" cy="3.5" r=".42"/><circle cx="27.5" cy="4.5" r=".42"/><circle cx="28.5" cy="4.5" r=".42"/><circle cx="29.5" cy="4.5" r=".42"/><circle cx="30.5" cy="4.5" r=".42"/></g></svg>
