<svg xmlns="http://www.w3.org/2000/svg" viewBox="0 0 128 128">
  <rect width="128" height="128" rx="24" fill="#0b1a0b"/>
  <g fill="#66ff99">
    <rect x="16" y="20" width="19" height="19" rx="3" opacity=".9"/><rect x="41" y="20" width="19" height="19" rx="3" opacity=".2"/><rect x="66" y="20" width="19" height="19" rx="3" opacity=".2"/><rect x="91" y="20" width="19" height="19" rx="3" opacity=".9"/>
    <rect x="16" y="44" width="19" height="19" rx="3" opacity=".2"/><rect x="41" y="44" width="19" height="19" rx="3" opacity=".2"/><rect x="66" y="44" width="19" height="19" rx="3" opacity=".9"/><rect x="91" y="44" width="19" height="19" rx="3" opacity=".2"/>
    <rect x="16" y="68" width="19" height="19" rx="3" opacity=".9"/><rect x="41" y="68" width="19" height="19" rx="3" opacity=".9"/><rect x="66" y="68" width="19" height="19" rx="3" opacity=".2"/><rect x="91" y="68" width="19" height="19" rx="3" opacity=".9"/>
    <rect x="16" y="92" width="19" height="19" rx="3" opacity=".2"/><rect x="41" y="92" width="19" height="19" rx="3" opacity=".9"/><rect x="66" y="92" width="19" height="19" rx="3" opacity=".2"/><rect x="91" y="92" width="19" height="19" rx="3" opacity=".2"/>
  </g>
</svg>
